<svg xmlns="http://www.w3.org/2000/svg" version="1.1" xmlns:xlink="http://www.w3.org/1999/xlink" xmlns:svgjs="http://svgjs.com/svgjs" width="1440" height="560" preserveAspectRatio="none" viewBox="0 0 1440 560"><g mask="url(&quot;#SvgjsMask1018&quot;)" fill="none"><rect width="1440" height="560" x="0" y="0" fill="rgba(36, 38, 41, 1)"></rect><path d="M817.82 567.66C950.8 550.25 1028.52 245.3 1246.17 244.68 1463.82 244.06 1559.53 409.71 1674.52 412.68" stroke="rgba(22, 22, 26, 1)" stroke-width="2"></path><path d="M617.1 610.09C743.09 549.93 686.33 145.41 924.01 143.52 1161.69 141.63 1374.03 369.4 1537.83 373.12" stroke="rgba(22, 22, 26, 1)" stroke-width="2"></path><path d="M792.23 657.29C903.43 652.02 968.65 471.09 1191.53 460.22 1414.42 449.35 1479.15 264.23 1590.84 258.62" stroke="rgba(22, 22, 26, 1)" stroke-width="2"></path><path d="M105.54 577.49C273.1 526.65 308.43 61.2 564.81 48.67 821.2 36.14 794.45 118.67 1024.09 118.67 1253.72 118.67 1367.22 48.87 1483.36 48.67" stroke="rgba(22, 22, 26, 1)" stroke-width="2"></path><path d="M463.66 567.03C649.3 538.93 751.18 96.61 1048.38 95.73 1345.58 94.85 1473.46 347.71 1633.1 353.33" stroke="rgba(22, 22, 26, 1)" stroke-width="2"></path></g><defs><mask id="SvgjsMask1018"><rect width="1440" height="560" fill="#ffffff"></rect></mask></defs></svg>